<svg height="512pt" viewBox="0 0 512 512" width="512pt" xmlns="http://www.w3.org/2000/svg"><path d="m512 256c0 141.386719-114.613281 256-256 256s-256-114.613281-256-256 114.613281-256 256-256 256 114.613281 256 256zm0 0" fill="#78b9eb"/><path d="m287.035156 280.039062-37.527344-37.527343-12.457031 12.457031-111.628906-111.628906-42.089844 42.089844 29.5 29.5-1.25 1.25 82.128907 82.125-110.398438 110.398437 89.445312 89.445313c26.097657 8.96875 54.097657 13.851562 83.242188 13.851562 141.386719 0 256-114.613281 256-256 0-12.589844-.925781-24.964844-2.679688-37.070312l-80.589843-80.585938zm0 0" fill="#5aaae7"/><path d="m154.152344 215.765625h203.695312v162.550781h-203.695312zm0 0" fill="#fdbf00"/><path d="m256 215.765625h101.847656v162.550781h-101.847656zm0 0" fill="#ff9f00"/><path d="m123.800781 205.648438h40.46875v182.785156h-40.46875zm0 0" fill="#ececf1"/><path d="m235.765625 205.648438h40.46875v182.785156h-40.46875zm0 0" fill="#ececf1"/><g fill="#e2e2e7"><path d="m347.730469 205.648438h40.46875v182.785156h-40.46875zm0 0"/><path d="m256 205.648438h20.234375v182.785156h-20.234375zm0 0"/><path d="m408.433594 175.296875v20.234375c0 16.792969-13.558594 30.351562-30.355469 30.351562h-244.160156c-16.792969 0-30.351563-13.558593-30.351563-30.351562v-20.234375zm0 0"/></g><path d="m378.082031 225.882812h-122.082031v-50.585937h152.433594v20.234375c0 16.792969-13.558594 30.351562-30.351563 30.351562zm0 0" fill="#d3d3d8"/><path d="m256 63.332031-172.667969 74.9375v47.144531h345.332031v-47.144531zm0 0" fill="#ececf1"/><path d="m428.667969 138.269531v47.144531h-172.667969v-122.082031zm0 0" fill="#e2e2e7"/><path d="m241.628906 124.699219 14.363282-14.367188 14.367187 14.367188-14.367187 14.367187zm0 0" fill="#fdbf00"/><path d="m428.667969 388.433594v20.230468h-345.335938v-20.230468c0-11.128906 9.105469-20.234375 20.234375-20.234375h304.867188c11.128906 0 20.234375 9.105469 20.234375 20.234375zm0 0" fill="#e2e2e7"/><path d="m270.367188 124.710938-14.367188 14.367187v-28.734375zm0 0" fill="#ff9f00"/><path d="m428.667969 388.433594v20.230468h-172.667969v-40.46875h152.433594c11.128906.003907 20.234375 9.109376 20.234375 20.238282zm0 0" fill="#d3d3d8"/></svg>