<svg height="512pt" viewBox="0 0 512 512" width="512pt" xmlns="http://www.w3.org/2000/svg"><path d="m512 256c0 141.386719-114.613281 256-256 256s-256-114.613281-256-256 114.613281-256 256-256 256 114.613281 256 256zm0 0" fill="#ffd400"/><path d="m511.5 255.625c0-17.285156-1.722656-34.164062-4.988281-50.488281l-80.011719-80.011719-78.796875 124.285156-134.964844-134.964844h-71.332031l-56.90625 271.679688 120.511719 120.511719c16.324219 3.265625 33.203125 4.988281 50.488281 4.988281 141.386719 0 256-114.613281 256-256zm0 0" fill="#fdba12"/><path d="m84.5 125.125h342v261h-342zm0 0" fill="#414952"/><path d="m84.5 125.125h342v261h-342zm0 0" fill="#414952"/><path d="m255.09375 125.125h171.40625v261h-171.40625zm0 0" fill="#333940"/><path d="m104 142.625h303v180h-303zm0 0" fill="#fff"/><path d="m255.09375 142.625h151.90625v180h-151.90625zm0 0" fill="#e9edf5"/><path d="m104 341.957031h83.832031v20.667969h-83.832031zm0 0" fill="#636978"/><path d="m323.167969 341.957031h83.832031v20.667969h-83.832031zm0 0" fill="#555a66"/><path d="m164.621094 219.578125 7.761718-19.511719 179.332032 71.332032-7.761719 19.511718zm0 0" fill="#ffb13b"/><path d="m351.714844 271.402344-96.621094-38.429688v22.597656l88.859375 35.34375zm0 0" fill="#ffa426"/><path d="m171.339844 94.285156c-29.058594 0-52.617188 23.558594-52.617188 52.617188 0 49.925781 52.617188 88.421875 52.617188 88.421875s52.621094-39.933594 52.621094-88.421875c0-29.058594-23.558594-52.617188-52.621094-52.617188zm0 84.898438c-17.875 0-32.367188-14.492188-32.367188-32.367188 0-17.878906 14.492188-32.371094 32.367188-32.371094 17.878906 0 32.371094 14.492188 32.371094 32.371094 0 17.875-14.492188 32.367188-32.371094 32.367188zm0 0" fill="#2864f0"/><path d="m171.339844 94.285156c-.03125 0-.058594 0-.089844 0v20.160156h.089844c17.878906 0 32.371094 14.492188 32.371094 32.371094 0 17.875-14.492188 32.367188-32.371094 32.367188-.03125 0-.058594 0-.089844 0v56.074218c.054688.039063.089844.066407.089844.066407s52.621094-39.9375 52.621094-88.421875c0-29.058594-23.558594-52.617188-52.621094-52.617188zm0 0" fill="#0053bf"/><path d="m351.882812 159.339844c-29.0625 0-52.617187 23.558594-52.617187 52.621094 0 49.921874 52.617187 88.421874 52.617187 88.421874s52.617188-39.9375 52.617188-88.421874c0-29.0625-23.558594-52.621094-52.617188-52.621094zm0 84.902344c-17.878906 0-32.371093-14.496094-32.371093-32.371094 0-17.878906 14.492187-32.371094 32.371093-32.371094 17.875 0 32.371094 14.492188 32.371094 32.371094 0 17.875-14.492187 32.371094-32.371094 32.371094zm0 0" fill="#fe6a16"/><path d="m351.882812 159.339844c-.042968 0-.089843.003906-.132812.003906v20.160156h.132812c17.878907 0 32.371094 14.492188 32.371094 32.367188 0 17.878906-14.496094 32.371094-32.371094 32.371094-.042968 0-.089843-.003907-.132812-.003907v56.046875c.085938.0625.132812.097656.132812.097656s52.617188-39.9375 52.617188-88.421874c0-29.0625-23.558594-52.621094-52.617188-52.621094zm0 0" fill="#f24500"/></svg>